<svg width="118" height="117" viewBox="0 0 118 117" fill="none" xmlns="http://www.w3.org/2000/svg">
<g clip-path="url(#clip0_3_436)">
<path fill-rule="evenodd" clip-rule="evenodd" d="M81.7738 0C73.1614 0 65.3327 3.19866 58.922 9.3001C52.5034 3.23332 44.6614 0.0453186 36.0517 0.0453186C22.8172 0.0453186 9.78269 7.91135 3.60928 19.6238C-1.84976 29.9981 -1.08207 41.8544 5.68042 52.2927L6.17353 53.1244C7.22375 54.8463 8.56187 56.4963 10.6596 58.5781L58.6235 116.839L106.99 58.786L107.155 58.5514C108.709 57.0587 110.234 55.2461 111.575 53.2763L112.169 52.3194V52.2927C118.929 41.8598 119.686 30.0007 114.221 19.6077C108.037 7.87934 95.0002 0 81.7738 0ZM105.956 49.3339L105.463 50.1176C104.444 51.5224 103.335 52.7885 102.237 53.8307L58.6555 106.163L15.9241 54.2466L15.2231 53.5455C14.0742 52.386 13.1893 51.3464 12.4962 50.3522L11.8991 49.342C5.97097 40.7109 5.16864 31.2829 9.63609 22.7958C14.6553 13.2664 25.2695 6.85847 36.049 6.85847C43.8244 6.85847 50.8508 10.1797 56.3658 16.4651L58.9354 19.3919L61.4837 16.4544C66.988 10.1477 74.0064 6.81316 81.7711 6.81316C92.5453 6.81316 103.151 13.2318 108.184 22.7851C112.662 31.2829 111.862 40.7109 105.956 49.3339ZM48.1586 36.9711H78.8417V43.7843H48.1586V36.9711ZM48.1586 47.8999H60.3614V54.705H48.1586V47.8999ZM48.4091 59.1032H69.4163V65.9136H48.4091V59.1032ZM48.4091 70.3118H69.4163V77.1249H48.4091V70.3118Z" fill="#41B6E6"/>
</g>
<defs>
<clipPath id="clip0_3_436">
<rect width="117.84" height="116.839" fill="white"/>
</clipPath>
</defs>
</svg>
